<mxfile host="65bd71144e">
    <diagram id="HIP3nbAZw_EuaXWnEj3U" name="Page-1">
        <mxGraphModel dx="1066" dy="578" grid="1" gridSize="10" guides="1" tooltips="1" connect="1" arrows="1" fold="1" page="1" pageScale="1" pageWidth="850" pageHeight="1100" math="0" shadow="0">
            <root>
                <mxCell id="0"/>
                <mxCell id="1" parent="0"/>
                <mxCell id="7" value="http://ics2o.mths.ca" style="swimlane;whiteSpace=wrap;html=1;" parent="1" vertex="1">
                    <mxGeometry x="45" y="40" width="760" height="592" as="geometry"/>
                </mxCell>
                <mxCell id="8" value="&lt;font style=&quot;font-size: 18px;&quot;&gt;Weather App&lt;/font&gt;" style="rounded=0;whiteSpace=wrap;html=1;" vertex="1" parent="7">
                    <mxGeometry x="180" y="40" width="360" height="50" as="geometry"/>
                </mxCell>
                <mxCell id="9" value="" style="shape=image;verticalLabelPosition=bottom;labelBackgroundColor=default;verticalAlign=top;aspect=fixed;imageAspect=0;image=data:image/png,iVBORw0KGgoAAAANSUhEUgAAAgAAAAIACAYAAAD0eNT6AAAACXBIWXMAAA7DAAAOwwHHb6hkAAAAGXRFWHRTb2Z0d2FyZQB3d3cuaW5rc2NhcGUub3Jnm+48GgAAIABJREFUeJzs3Xd8VeX9B/DPc+7NzU5IgoCIkISIAuJCq4hoElCLVgTStNa6tWqrratqW22Ltv601l33rqOOGEJdOIDEPUFQGVZIwpCdPe845/v7I1hHIeM+z73nJvfzfr182ZfN+T4P4ZznfM8zASIiIiIiIiIiIiIiIiIiIiIiIiIiIiIiIiIiIiIiIiIiIiIiIiIiIiIiIiIiIiIiIiIiIiIiIiIiIiIiIiIiIiIiIiIiIiIiIiIiIiIiIiIiIiIiIiIiIiIiIiIiIiIiIiIiIiIiIiIiIiIiIiIiIiIiIiIiIiIiIiIiIiIiIqKeKbcrQETRkz/txAki3nNEZKoCcgFAgFoLskA5eHBNVcXnLleRiKKECQBRHCiYPj0x5E++VQHnAbB28WM2RN2bMti6dHlZWSCa9SOi6GMCQDTAFUyfnuj4k+cLUNSbnxdgUWqOZzqTAKKBbVdfAkQ0QDj+lNt6+/IHAAUUt9fZN0eyTkTkPvYAEA1g+dNOnCCOZyn6nuzbHlH7r64sXx6JehGR+9gDQDSAiXjPQXjPuSekcLbp+hBR7GACQDSAKXGmhX0t5GiTdSGi2MIEgGgAE6iRGpePMlYRIoo5TACIBrY0jWvTjdWCiGIOEwAiIqI4xASAiIgoDjEBICIiikNMAIiIiOIQEwAiIqI4xASAiIgoDjEBICIiikNMAIiIiOIQEwAiIqI4xASAiIgoDjEBICIiikNMAIiIiOIQEwAiIqI4xASAiIgoDjEBICIiikNMAIiIiOIQEwAiIqI4xASAiIgoDjEBICIiikNMAIiIiOIQEwAiIqI4xASAiIgoDjEBICIiikNMAIiIiOIQEwAiIqI4xASAiIgoDjEBICIiikNMAIiIiOIQEwAiIqI4xASAiIgoDjEBICIiikNMAIiIiOIQEwAiIqI45HW7AhQfJk48N2FbVt2eHkfsUU79V1VVVSG360QUM0pLPfkN2MMK2c4I1G/m80HRoNyuAA1oKr9o9nFi4dcQTAGQsuO/BwB5S5R6oHbh3GcBiIt1HNDyimdr/W5rFs1lGxE5Kq+opBRKzgFwJIDEHf+9VYA3oeQftQsrXnGxfjTA8eGmiBhTeMLgoOV7BJAf9fCjb0KFflKz8PktUalYnGECEJvyps4YCvE+i64X/64p9e+g1zprw6tl9dGpGcUTzgEg40YecXxW0EpY2IuXPwAcCfG+XTCldLeIV4woBow+ZtYQEe876OnlDwAiJ/qC9usF06dnRL5mFG+YAJBxXl/i3QD268MlBaEE+1GwR4oGPiUh61EFjO7tBQIcZPuT74xkpSg+MQEgo3KLSg4V4KS+XqeA4/KKSkojUSeiWJFXVFIqkOlhXHrK6KKZE41XiOIaEwAyyoKcGfbFSm4cMak02WB1iGLGiEmlyVByY5iXKwee8J8top1gAkBGOQpHaFw+ypviXG6sMkQxxJtsXwFgVNgBlBxurjZETADIMAXZU+t6kSsKCmePMFUfolhQUDh7hAJ0k9uRRipDtAMTADJMBTUDpIYs/M1IVYhixI57OlUzjO6zRfQdTADILMFK3RAK+Fne1B9PMVEdIreNmjprkgJ+phtHQf/ZIvo2JgBk2msGYijAuQVz5vD+pP5tzhzLgroDBpa4CtRCAzUi+i82sGSWFbofQKd2HMHB+W8uO12/QkTuyX9z2ekQHGwgVKfldR4wEIfov5gAkFE1C5/fAsEtJmIJ1PX500ozTcQiira9J89IF6WuMxNNbl7zWsVWM7GIujABIOP8acHrIFhvINRQOM7vDcSJZy3hXyrN5qoRf4I+79UQ7K4bRwFfpTjeG0zUiejbmACQcRtfeKEdkKtNxBLIxQXFM3u9bSp9l4JoJGJqnbmaxJeC4pmjReEiE7FE5A/Lq8paTcQi+jYmABQRNZUVjwN4x0CoRAfWTQbixKvXw75SxMSEzrhkK8/N+OZ43/ApvL/jWSIyjgkARYqIqMsAaB1Hi64AM/OnlUwzUKe4oxw8CMAO41LbtrwPma5PPMifVjINIicaCCXiqIth4Bki2hkmABQxtZXlHwB4wkQsceTWwsJCr4lY8WRNVcXnEHVvny9U6q51C8tWRKBKA1phYaFXHLnVULgndjxDRBHBBIAiKuQJ/Q6AifHLfdd6ss4zECfupAy2LgWk92vIBQuyG3N+G8EqDVg77tF9DYRq3fHsEEWMx+0K0MDWXP1FS1beOAtAsX40dWjamH0fbF6zokM/VvzYtmKFvcfBE54OdkgWgInYdeJvQ6k7s5sGn7548f3cdraPRhxbmu2xZS6AFP1o6tq1C+e9rB+HaNeYAFDEDRp16EcK/p9DIUszVIrHkdTGmpXzjVQsjmxbscJurFk5f3DuuHJHKb8C0tH1ogoA+A9EnrAt77lrFz73+KZNix2Xq9sv5Yza50YAhdqBBDUiGac01i4Nacci6ob29pREvZFfVFIiSp4zEMpWln1g9YJ/f2YgFpERI6eWjvOIvRRAgm4sJVJSXVkx10C1iLrFOQAUFdWV5eXQWZL2DY/jeG4zEIfIGA/sW2Di5Q9U8uVP0cIEgKLGI+oSANrdmgooziuaPcNAlYi05RbNOhGCYw2EskXkEgNxiHqFCQBFzerK8uUK6kETsUThloLp0/U3WiHSML601KeUutFELAHur6msWGYiFlFvMAGgqAokWFcBqNONo4DRoUCyka1WicLVVhe6BMAY/UiqwecE/6Qfh6j3uAqAoqp5zYqOQXljAwr4oW4sBRyWOWLso03rVnKfdIq6vKkzhip4ngGQpBtLlPr9msp5lQaqRdRr7AGgqMt16u8UYLmBUOnKJ381EIeoz0S81wMwcVz1qpzGnLsNxCHqEy4DJFfkTyuZJo6YWBXgKIXDqhfO/chALKJeGTWt5EDLkY9h4CPKgXPc2kXzuLcFRR17AMgV1QvKF0DhJQOhLBHcDiazFD3KcpzbYaT9VC/y5U9uYQJArrFsz8UA/AZCTcovLjnJQByiHuUXzf4ZoKYYCBWAWDxzgVzDBIBcs6aqbDVE7jIRS0T+Nr601GciFtGujC8t9Qlwg5FgInfWVJZ9YSQWURiYAJCrPEmd1wDYrB1IYc/27SH2AlBEtdXZJ0NhTwOhtorIXwzEIQobEwBy1er585sh6s9GgilVYiQO0S4oYLaZSHJ1bdW8RjOxiMLDBIBcVzPYeghKLdWNo7qOuiWKpAO1Iyi1tCbH+7CBuhBpYQJA7isrsy1HLgQgOmEESDVUI6JdSdMNII5zMcrKbBOVIdLBBIBiwprKue8ASve44CYjlSHatXq9y1VZbWXFG2aqQqSHCQDFELkcQEfYlxsYRiDqwRKNazt23ONEMYEJAMWMmkVz10LhpnCvFzhPm6wP0fcpkafCvxg31Syau9ZgdYi0MAGgmNLuSf0bgNq+XifA8pzG3crN14joG9WDvf9W4fQCCGp23NtEMYMJAMWULa893uYoORlAoA+XtVkKZy5efH8wUvUiAgCUldmw7DPQt/kmfoH62ZbXHm+LUK2IwsIEgGLO2oUV74moGQB6c8xvnRLrRB4GRNFSveDfnzlKpgPY2Isfb3IUptdWln8Q6XoR9ZXH7QoQ7Uxj7co1OXuNecJxrKEKGAPA+70f8QvweAien6ytfG6ZG3Wk+NVUs2rDkFEFjznKkwxgPIDvb0PdLkoel6AqWVs19zMXqkjUI56gRjFvxLGl2QlBZ7JS2AuOdAJYGwr631339ksNbteNaPgJJ6T4OhJ/oGwZAyWOEqvGSmr7aPX8+c1u142IiIiIiIiIiIiIiIiIiIiIiIiIiIiIiIiIiIiIiIiIiIiIiIiIiIiIiIiIiIiIiIiIiIiIiIiIiIiIiIiIiIiIiIiIiIiIiIiIiIiIiIiIiIiIiCguKLcrEAtGTZs11nKsswAUAZIHKAUlayCqyrZwz7oF5dVu15GIiHqvoHjmaBue8wEUAcgHRABVA+UsEtt6uLaqfJXbdXRbXCcA40tLfR11oRsF6kIAnl38mA2ohy2vc/Wa1yq2RrN+RETUN6OPmTXECVl/BeQs7LpdDwnUP1JzrN8tLysLRLN+sSRuE4CC6dMTbX/S84A6ppeXNEHhLynZnn/E8w1DRBSLxpeW+trr7V9D8EcAmb26SPCKJ6lj5ur58/2RrV1sstyugFscf/INfXj5A0AmBDe119mf5xXPKo1YxYiIqE/yp5VMa6uzl0BwE3r78gcAhR/anUn/F7maxba47AHIKyrdG8peAa0ESBZaDi5eU1XxubGKEYVhfGFpWrsKjVYW9nSg9rAcGS7K2h1KskWQpZTKhkgGgBRAJQKSCsD3vTAOoJoA8QNoB9AKoAEK20WwVSlsF5GNlqj18NjrQp2hDevefqkh2n9Wom/LnzprjEDdAsHxGmHEsWT82gUVK41VrJ+I0wSg5E4oucBAqKCC3B0KBK5hY0iRNuLY0uzEgD3WUTJOYI1VSsZBsA+AUS5VqU6ALwB8YUH9B4JPg97g0vWvP7/RpfpQnBh5xPFZXp/vzwL1KwAJ2gGVuqNmYflF+jXrX+IzASievRLAPgZD1otS1+badXdVVVWFDMalODW+tNTXWScH28o5QgmOAPADAEPdrlcvbQVkqRK871h4z+vrfHf1/PnNbleKBoA5c6y8N5adAqX+DmCIwcif1yyaO8FgvH4hXhOATgCJEQi9SpRcUruw4pUIxKYBrGD69IxQIOlwJWoygCMBHAIg2eVqmeIAajkUKiFY4PMHq7545/kWtytF/UvutB8XKse5DcD+EQjfVrNobloE4sa0eE0AAjDRbbQrCuWOx3P52tfKaiJWBvV7ecWzR4lSM5XjzIRSU7DrJUsDTQiC9xXwsgX1/OrK8uVuV4hi16hjSvMs2/47BCURLKajZtHclAjGj0nxmgB8AWBMhIsJQKl7Pb72P7L7k76WP+3ECWJ7ZiqFmQIc5HZ9YsRqAP8WB8/VVs193+3KUGwYfsIJKUltCVcIcCWApEiWJcDy2kVz941kGbEoLhOA/OKSewRyfpSK2wiR39dUVjwOQKJUJsWQvKLSvZVyznQgP1bAaLfrE+OqAXnKI9ZT7BmIWyqvaNapUOp6AMOjUyLurlk418TE8H4lLhOA0UUzJzrK+gjR/fN/IKIuqq0s/yCKZZJLdmw0NQOizoXCVMTps6ZHLRaFx0Ne6/ENr5bVu10birzcopJDlZLbARwaxWIdcZyJtVXzlkaxzJgQt41S7tRZDylRZ0W5WAHwRMgT+h2XSg1MBUUl4x3l/ALAaQKV5XZ9BohWUfKsKOvOtQvKP3G7MmTenkfPGO61vTcAOAVRfy+pB2oWlZ8b3TJjQ9wmACMmlSYnJIdeBdQUF4pvV8DfHSfjhtqqRztdKJ9MmjPHyn3r01KPkosdRx3mdnUGuDeVqDuqB1vzUFZmu10Z0jO+tNTXVu/8Uon8BUC6C1V4z58anLbxhRfaXSjbdXGbAABdk0wS2xJuB3COKxUQ1Cioy6sry8tdKZ+0FBYWeteqrJMTfbjGH1S5btcnztQqwd8dyXiYSXT/lF9UUiKQv0Mhz6UqPOhPDV4Ury9/IM4TgK9FeH1pb7wBkYtqKiuWuVQ+9cH40lKfpy1wmrLUdc3tlsnNSKjvtirgHlieW6sXlDW5XRnq2ahps8Zaom6F4FiXqrBSlFzK/VqYAHwjcjtM9ZYD4EnLK7/lscOxacSk0uSRwwOXtnSqK1o7rAy360PfsU2JXO9I5j3sEYhNI44tzU4IOX+GyAVwZ8+LelHq2tps604OH3VhAvA9uYUzB1mW53cCuQT/e2BKNDQK5AZvYudt8XpEZcwpLfUcl+K/YmOd5+qmdhV3m4X0K4L1sHDNKLv+n9yWOzZMnHhuQn1G3ZlQch2AwS5UIQSFhxPs4FX/qXphuwvlxywmALuQP3XWGBHrZkB+5FIV/qOUXFa9sOJFl8onAD+/cMYptZvVbRvrPTlu14X6Qr5QYl1aXVn+sts1iWf500qmiSO3AnBpkx2e2todJgA9yJ9WMs1x5DYFjHelAoIFHqiLuSlKdP3+jz+ctHyD79nP1npHuF0X0qDUvz1iX7Z60bw1blclnuQfXbKX2LgOkFKXqvAlIFfVLKooc6n8foEJQC9MnHhuQt2gul8pkWsAZLpQhSCUukds+8+1VfMaXSg/btx559Scz2sSn676PHGaP9h/Hg+fF9g9O4Rhgxzsnm1jeLaNYVk2ds9ykJokSPE5SPQBiQmC1ESB1xKkpwCWErT7FYIhQJRCc7uCP6DQ0GahsVWhvsWDhjaFTQ0ebNjuwVd1Hmyo86A//W4A+BVwg5XYcT2H1SJrfGFpWodl/1aA3yEyB671pFUBN/Pvunf61VPstj2mzsrxwfoTJ7EMPCJQd9xxzP+VvZ18+Vd1npg9lMdSgpG72Ri7Zwjj9wxi7J5B7D3CxrBB0b0dNjd6sHqjFys3ePHFV17856sEfLnRg6Ady02KfCGC82orK95wuyYDzjeTqG+EO8dWOwCehApdXrPw+S0ulN8vxfLTGrNGTSs50HLkNnQd2+qGlSLqktrK8lddKn9AWTS3aP/y95JfnL8kaYTE2GkNKYmCQ8cEMHlcABNGBrHPiCBSk2Kskjv4gwqfrfVi8RofFq/24ZNqHxpaY66JEQAP+fyhS3kksRm5RbOOUpZ1G0QOcKkK3GY9TDH3dPYnecUlJ0Dkdvc2slAvOl7rNzx2ODyyfLzvkbeH3f/Aq2mnbW70xMSz4LGAA/IDmLxPAIeP9eOAvBC8nth84fdEBFi5wYu3lifhjc99WLzGB9txu1b/VesonLV24dxKtyvSXxUUzh5hW/g/uLJ9LwBgA0Su4kFr4YuJRq8/GzGpNNmbHPqNgroK7mxlGYBS9/o6g1fzi6b3at898sB7Xkl5peydlCFuf/UnJgiO2jeAEw7pwJHj/TH7ha+rpcPC2yt8eHlxEqo+S0RHwPXmx1GQfzhO5u+4d0DvfeuY3isAJLtQhXYF9Y9kx/rr8qqyVhfKHzBcfwIHioLC2SNCFv6mgJ/Bnd9rraPk5LULK95zoex+QwTqxeeK/3T3C2l/WrXBa7lVD48FTB7rx48O6cQxB3YibYC+9HelPaCwaFkiXvo4CW98noSAmyv2lVoKxzqpprLsCxdr0S+MLv7x4Q6cJwHkulC8CPCU18GVq6vmbnCh/AGHCYBh+VNnHyKC2wFMcqH4oCiZwS0ud05WH7nnwwt9r95SkTa2PeDOu3/siBB+dmQ7pk/sQFZafL30d6WhVaHi/RQ8+1YyVm/2ulWNVohcUFNZ8ZhbFYh1o4tnFTtQL8OF2f0KWAJLLqpeUPF2tMseyJgARMKcOVb+m8tOF6Wug2D3KJfe4nEwjhnyd617v/iYO15MnFf+bnLUuyw9FjB1fz9OK27DYWMC0S6+X/l4dQKefCMF8xcnIeTOioIHPYkdF3IJ2XftGO9fgWgPcypsUiJXVR+5/z8xZ07szCAZIJgARNDek2ekBxMTrhLIxYhu1vx4zaK5p0WxvJglArX09aOu++OTGb9bvj4hqvd7ZqqgdHI7Tilsx4gc/WV667Z78MybKXhzeSLWbrXgQGHoIBuH7R3E7MM6MLFg4CQXmxos/HNRKp55KxktHVHvrfkgCE/JhkVlX0W74FiVVzzrcUCdEsUi/QrqtgR/8DrObYocJgBRUFA8c7QD6yYBZkapyE474B++7u2XGqJUXkySNRMzF32W8dLvHs2cvL05ei+RwRkOzp/ehp8c0Y4Un343v+0Ad72chnteTu12nf2xB3XihtOakZ48cD6UWjsVnnkrBfe/moq6lqgmApstwY/XVM59J5qFxqLcwpmDlGVtApAUjfIUMM+C81vu3hh5TACiaNTU2UWW4DYA+0W6LCXq+HjeB12+PHTEv95Oe/uvz2SM6ozSbPPUJMEpR7Xjl8e1GpvU54jCZQ9n4IUPezdysdfuITx1RT0GpQycJADomjT47NspuHd+KqKYzPlF4fTahXOfiVaBsWhU8czpFqxotCWrHDiXrl00b34UyiK4s5td3GqqWVl7wKihDzZZSVsBdSiAyJ0sp9T7jTUrP4xY/BgmX0z6wY0VGR/dODdjt2iMI6ckCn5xbBvuPLcRxfv54TM4j+2B11PxyILUXv98fauFVRu8OPHQgbWqLcEDHJAXxElHtiPRB3xWmxCNXQe9CpiVlTeuPl6fJQDIyR13DBSOj2ARdVByxSin4exlla/8J4Ll0PcwAYiy2tpap7Fm1UdpY/Z90ONIKoCDABj/pFGClxpqV35kOm6sa/ls8k+u+lfmS49XpUa8u9JjAacUtuPu8xsxdT8/EhPMxq9vsfCrewb1+UW3dpsX++UGkTt04O0W7fMCh44JYPbhHWhstbDqK8O/9P9lATguO29cckPNyoWRLiwWZY4ee5ACInEqagjA3cEET8m618vfrK2tHVjdVv0AEwCXNK9Z0dFYs3J+Vu6+z4qSfAXsZbQAZd3RWLMirsbQvloy+ezLHx702PzFSRG/ryfkBnHvrxrxk8kdSEmMzHK+p95KwaLPwstj2vwWTjhkYPUCfFtakuDoA/wo3NePLzcmYFNDxP/Kj8jK22f0HgdPeGnbihUDL7PqRlb+PtmAOtVkTAEWWZY9q2bhvEeb16zoMBmbeo9zAGJEXtHsGVC4GUCBgXCdyvIMq15Q1mQgVr+wcfGUiy97MPOW97/wRfSeTk92cNGMNpxa2AZPhIeiz74zC298Ft7ikWSf4NM7tkDFwRMuAsx7PxnXPZuOxvbI/qV0vbg8s+Pp2dp78oz0QKJ3M8wMWa6G4LKayrnPG4hFmlzbCY2+q6Zy7vMpOZ7xonAlIM2a4Z6IpwZq7XtHzLnwnkG3Rvrlf/zBnXj1mu04ozjyL38A2Lg9/K/ajoBCfWt8PN5KAbMmdeDFP9dh2gGRXb6vgGIRe8HII47PimhBMeSLd55vgcKjelGkWRSuTMnxjOfLP3bEwfdB/6N57PC2kCd0wPrXn98YibrFmpr3pvztN/cNuuLzdZEbC85Od3DDaU0o3i+6e8NMnzMYX24Kf0bhuzduxZDM+BtWffnjJPz5XxloaItkAqQW24HOo+NlqW3BlNLdbJ+9LIyNzQTAE+J4rqitKtscibpR+JgAxLDRRTMnOsq6HcDkXl7SKiI/ipfzzmvenfz739yf/X+RfPlPHhvA389sdOVF+os7s1AZ5hBAis/BJ7dvjUpPRSza3OjB5Y9m4L2Vkdt/SwFLAgmeoze8WlYfsUJiyOii2ZMdJS8DKqOXl7xjiXPRmsp5iyNaMQobE4DYp/KLS04Skb9BYc9ufu5TBzhz7aK5S6JWMxdtXDzl4ovvy7z1o9W+iMT3WMAFx7Xiwh+1wVJ9m+TXEVB47ZMkLF6TgIZWCx4LyBsSwlET/DggL9jrOI8sSMF1Zb1ta7/rqAl+PHRhXHyc7pII8M/KVNxYnh65w4aUWiq2XVRbNa8xQiXElLyiWftDqUcAHLjLHxKsV0pdWb2o/GnwmN6YxgSgnxhfWupr3x46CUqVADgYUMkQaVQKy0TUU6Okbm5VVZWbZ6pFzcZPpvzi4nsz7//oy8i8/POG2rj17AbsO6pvv86grfDIwhTcPz91l5PRDsgL4tqfN2Hcnj3HbmhVOOr3uyGcg4vuv6Ah6kMWserT2gRceN8gbKyP0EoBkSqRzOlxc6Rwaaknf3voRFHWSYAcCKgcQNoU8LEoVZ6SbT27vKxs4OxLPYAxAaB+penTycdd/OCgF6s+T4zIvfvDgzpx4xlNfV7a9/4XPlzzdAa+3NjzmH2CR3D7LxpxzIE9v6Afej0V1z/Xt/NXpoz345HfxPfX//c1tCr85sFBkRwSeCG7aXDJ4sX3976Lh8hl3AeA+g35csq4q55Mr5y/JMn4mbFKdXX5X3tyc5928tvW5MHvHsvEjXPTUd/Lveod6RoiKJwQ6HFuwYH5QWyo82DVht7NcxizRwj3/6oByZHpHOm3kn3AiT/oRDCksKQ6Ir+cvTsT24c01K58MRLBiSKBCQD1C1JzyLDryzI+efKNlN7vi9tLPi9ww2lNOHNae5/WzT//YRLOvTML4UxCdERhWY0PPzuy+zKVAo7e3w+PBSxenQBHdv3DPzyoE3f9shFZqRx23RlLdU3q3GtYCIs+TYTtGO5EUjh4UP64xsaalR+YDUwUGRwCoJgn6yclP/ZK6vI5T2XkmY6dlSa46/wG/GCv3g9Zbmvy4I//ysCCpfrdyf+8uB6Tx/au7A11Hjz1ZjLeXp6Imi0eCBSGDLJxyF4BlB7eOaCOA460JV8m4Ly7s9BgfuMgWymZWb2wgj0BFPOYAFDMe7ms+IVLHhj0I9MzucfsEcIDFzRgj5ze7+z67qpEXPZwBrY1mek8O3NqG676CY87d8PqtR784q4srG8yPaIkzR6xDl9dWb7ccGAio+J0lTD1Fx+9dtQV1/4rw/jLf9+RQTx5aV2vX/4hW+GG8nScfluWsZc/AKzqxaRBioyCUTaeu2gb9h5set6eyrCVvDj6mFlDDAcmMooJAMWs6neLf3DNk5nXb2kye5selB/EY5fUIyutd2Plmxs8OOnv2XjwtVSI4eH1UJCdcG7K2UPhybO3Yt8hxodPcp2gKi+YPj1yOxERaWICQDFJ1kzMvPOlxAXL13uN3qM/2CuARy6qR0ZK797kS6oTMPv6HCyticxug7sNir+temPNoFwPnjhlKw4abnjfBIUjHH/KbWaDEpnDVQAUk4YUTFj08IJUEycj/teksX48eGFjr9f4l7+XjF/fl4Xmjsh9pZdM6sBBo7l03FUK8GUAJwxtxfsbkrCpxeiwzMGD8scta6xZucpkUCIT2ANAMeepR6f+5u6XUw43GXPKeD8evKARyb6eX/4iwN8r0nDlo5mR20IWgNcjOOEBwEnLAAAgAElEQVRQHoUeE3wWkodbeGSW+eEAJfJgQeHsEUaDEhnABIBiyifzC3P/uTD15nC2v92VfUeFcNd5jUhM6PnlbzvAVU9k4r5X0oyVvytnTm3H0Dg8rS9WSZYHaVnAP0u2YK8co70yObaFJ1Fayh5Xiim8ISmmpIzcZ8k7KxNzTMUbOdjG45fWI7MXm+O0+xV+eU8WXl6cZKr4XZpYEMD1pzUjgU9g7FAAUi2ktNk4dnQ7Xv0yBc1+Y4noqKxO8TfWrHzLVEAiXewBoJjx95uP/eu/P0wxttlPVprgod/UY3BGz1/ZrZ0KZ9yehTeXR37SdvF+fjxwQUOvhiMoyrwKkuPBkDQbD83eiswkgz00gmtyC2cfZi4gkR6uQaKYcMstxXs883bG2q2NlpFv4mSf4LFL6nFgfs9dua2dCmfdno0l1ZGZ6f+17HQHV85uwexJHX3acpiiTABrbQDwC97fkITTnxuCoLltg6s9iR0Hrp4/v9lUQKJwsQOSYsLwvce9v3xdwlATsTwW8I9zG3F4L7bYbemwcNYd2fgkgi9/SwlOPKwT91/QgINGB/nyj3UKkEQLqtnGiIwQRmSE8PqaFFPRs8TxpTbWrHzFVECicDEBINdd8cfjzp+/JOlMU/EumdGKn07peXZ9Z0DhnH9kYfGayB2dt9fwEB64sBGnFrXzhL7+JEEBIUB1CsbuFkRn0MLijcaGhw7Jytv7lcaaVV+ZCkgUDiYA5KoRk0qTGzpR2dphGVl8fdQEP649uaXHr2zbAS5+cBDeWhGZMX+PBZx7TBtu+0Ujhmdzpn+/lGJBNdqAAJNGdmLxxkSsbzLSU6QAdUDjwfs+jBUrOBGEXMNJgOSqw/drf2xLg8fItPvh2TZuOqMRluq+TRUB/vB4Jl77JDKz/XfPcvDkZXW4fHYLfNzqv/+yAMnp+gv0KODOH23HnhnGNoY4JK8+dL6pYETh4Ggkuaaw5IR9NrV4VwRC+qPiPi/w9OV12C+350l/N81Lx73zU3WL3KmjD+jEDac19WrZIfUDAlg1ASDY9ff56RYfSp8aZmpSYJMTxNi1b83dZCIYUV+xB4BcY/mschMvfwC4+ifNvXr5P/9hEu57xfzL32MBV5S04O7zG/nyH0gUIIO/GSndb2gAlx7RaCp6picBt5gKRtRXTADIFQeccMKJNVs840zEOu7gTpx8VHuPP/f5Wi+uejzT+Il+qUmCu85rwLnHtHGG/wAk6R4g8Zu/2F8c3IJJe3aaiQ2clDd11tFGghH1ERMAir7SUo/H8txjIlRWmuDPJ/W8pHprk4Vz78pGR8DsG3pEjo25v6/DtAMMnyRHsUMBkv1NL4AFwc3T65BlapMgUTdhzhy2xRR1vOko6sa12efUt1i7m4j155OakJPefUPsiMJvH87E1iazt/uYPUJ4+vJ6jB4WwRODKCZIuqdraeAOw9JCmDO1zlT4/fLeXFZiKhhRbzEBoKgaMak02XLkbyZiTTvAjx8d0nNX7G3Pp+LdVWaX+x06JoBnLq/HsCzbaFyKUd+bCwAAJ+zdjqn5PQ899bKAa3hYEEUbEwCKKl9K8Ny2gMrUjZOe7GDOz3ru+n9reaLxGf+Txvrx4K8bkJ7M9f3xRDI8wPeWdf716HpkJBq5D8bm1junmAhE1FtMAChqJk48NyEpQf3BRKyrf9KCYYO6//puaLNwxT8z4Ii5cf9DxwRw368aeZBPnJJB380AhqbauGyymVUBSuSa8aWl3C+SooYJAEVNfUbdmR0BNUQ3zmF7BzB7Us9b/c75Vwa2NZnrVT24IIiHft2AFL7845YMsv5n95SfH9CKA3Y3Mgl0VMd2+xwTgYh6gwkARUVhYaHXl+D8UTeOpQS/L+15q98XP0rCSx+b2+lvzB4h3PereiTx5R/fPKprKOBbLAj+eFSDkSWgonDViEmlyfqRiHrGBICiotaT8/NASI3QjXPiYZ0Yv2f3G/7Ut1i45qkM3aL+a0SOjUcvqucGPwRgRy/A9xw43I8T92k1EX54QkroLBOBiHrCBIAir7TUY8HRHvtPTBBcMqPnRvaG8nQ0tJm5tVMSBfdd0IAhmZzwRzskWUDS/37uXzGlCSkJBu4TR13GFQEUDUwAKOJy6+0fi6gxunHOmNqG4dndT/z7eHUCKt4304NqKcGtZzdi7z24zp++S9L/9/08LC2Ecyb2vDKlRwp5+dudmfqBiLrHBIAiT/Ab3RDZ6Q7O/2H3a65DtsIfnzS31e/FM9owdX/u8Ef/6/vzAL529sQWZBrYIdBRcql2EKIeMAGgiCooKhmvgMN141x4XGuP6+6feCMFX240c/7uUfsGcP70NiOxaADyApL6v81neqKDXxys3wuggMNHTSs5UDsQUTeYAFBEOcr5hW6MnHQHPzmi+2V/bZ0K97xsZsOfYVk2bjqzAZbipD/qRsbOm88zDmxBTor+DpGWyPnaQYi6wQSAIia38IwkgTpVN86pRe09Lr+755U01LXo386WEtx6ThOy0vjyp+5J2s6HAVISHJxjoBcAgpPzp5Vq75pJtCtMAChiLE9TCYBsnRgpPgc/L+x+7H9zowePLkzRKea/zpjajkMKAkZi0QBnAZKy88X/J09oRZpPey5AGhznZN0gRLvCBIAiRkSdqxuj9IhOZKV235De90oqOg0c8zt6WAiXnmhkLTfFi52sBgC65gL8dF/9e0lEmABQxDABoIjIKyrdG8AUnRgeCzi9uPuJeNuaPCh7R3/Zn1LA9ac1c6c/6pOdTQT82tkTm+H1aN5PCpNzC2fm6gUh2jkmABQRCvZZ+J9d0/vmhwd1YuRu3U+muv81M1//pZM7cNBodv1THyUowLfz+29Yuo3jxmgfF6zgsX6iG4RoZ5gAUESIwmzdGKdP7f7rv6FV4Zk39ff7z0oTXD67RTsOxSdJ2XUzevIE/WEAJThJOwjRTjABIOPyppbsB6BAK8ZQGwfmdb/n/1NvpqI9oH8LXzKjpcd5BkS71E0C8IMRnSjI7v4+7oUDR04tHacbhOj7mACQcQJob2NaMqm929PVbAf415v6Y/95Q+0e9xgg6o6kqG4Hu0oNTAb0is1hADKOCQAZp4BZOtdbSnDiYd2/lF/7JAmbG/TPS7l8Vov+RC2Kb55dzwMAgB+Pb4VP8x4T4OdaAYh2ggkAGZVXPHsURPbXiXHY3gHsntXDtr9V+uv+J+QGcfQBndpxiCRp101pVrKDo/K077OCgqKS8bpBiL6NCQAZJV1f/1rT8ksO776xXF/nwYdf+nSKAABcML2122EGol7byfHA3/ajMfrnSoQsTNMOQvQtTADIKN3u/5RE6fGrfO47ydon/u01PITi/bnsj8zorgcAAKaO7kBKgt5EUyVMAMgsJgBkzI59yyfrxCia4EdK4q7f7iLAvPf1J//9anobD/shcxK7nwiYkuDgSO1hADlq4sRzEzSDEP0XEwAyxpHQJABaM/MK9/V3+/9/+KUP6+v0Jv8NyXTww4kc+yeDFLqSgG4Y2BQovX5Q/WG6QYi+xgSAjFGCI3Sut5RgyvjuE4BXluhv/HPyUe1I4Mx/Mky6WQkAAFNGdsCj2eIqcabqRSD6BhMAMkhp7f2/76gQBmfsepxUBFiwVC8B8HoEP+W6f4oEX/fNaWaSgwN27z7B7YmA8wDIHCYAZMT40lIfgIN1YvTU/f/Z2gRsatC7ZQsnBLBbZvfnCxCFJbHnHzlqlHbyeWjB9OkZukGIACYAZEhnnRwMQGtxfk/d/wuW9aKF7cHsw7THYYl2Srw9ryktzNNOALyhQNLhukGIACYAZIitHK3x/6w0wX653e+ZvrRabwJ0VqqDov249I8iJKHnBGDc0CAykzSXAzrqEK0ARDswASAjlOiN/x+yl7/HCVIb6rw6RWDqAZ2c/EeR4+l+KSAAWBAcNFxvHgAUmACQEUwAyBDRGv+fMKrnE9O8lt7L+9gDNRteop70ohfgYN0EAEwAyAwmAKRtxLGl2QCG6cToqfsfAHKHhj95LyVRcPg+7P6nyOrNPICJ+gnAsD2PnjFcNwgREwDSlhiwx+pcr1TvegAOHxv+C/zYgzqRmMDuf4qwXuxRtd8wPxI0e7O8jocHA5E2JgCkzVEyTuf6vCEhZKT03CDOPqwdaWFMoFIKOKWQs/8pCjw99wAkeQX52SGtYpSDfbUCEIEJABkgsLR6APbL6/nrHwAyUgS//3FLn+OfdEQ79u/FEAORtl62qPsM1huOEij2AJA2JgCkTYloJQC96f7/2k+ndOCsab0/WnXKeD+u/mnfkwaisPSiBwAA9t5NMwFQ0HrmiAAmAGSCgtYQwF7D+za57w+lLfjrz5u7HQ7wWMB5P2zF/Rc0cuyfoqd373/tHgAF5GsFIEKvb1einRtfWJrWbtnN0LiXFv11G0bu1vcZ/s3tCvPeT8Y7qxJRs9mDkK2wx24h/GCvIH58eDt2z9LbcIWor1SjDbWl5/H9jS1eHPHAHjpFiT81mLbxhRc4uYXCprezCsW9NgQLFKywX/4eCxieHd6LOiNFcFpxO04rZhtIMUL17lEYlm4jwRIEnbAfHZXS6ssDsDzcAEQcAiAtlrK0PmN2z7Lh5e58NFCo3t3LFgR7ZOitBHAguVoBKO4xASAtjpI9da7fc4heI0jUX43QPJVSFHY3VBWKU0wASIuC0uoBGDmY4/Q0kPS+S3/PTO2lqVq7bxIxASBNaqjO1SNy2ANAA4j0fjhr9zS9HgCIYgJAWpgAkB4l2TqX56SzB4AGkD5MZ8lK0UwAlGgl30QDbhVA/rQTJ4h4zxGRqQrIBZDqcpXaBKi1IAuUgwfXVFV87nJ9jFKCbJ0pfJm92AKYqN/oQz6bnayd/GbqBog1bL+ja8AkAAXTpyeG/Mm3ioPzAAl/XZp5qQoYL1DjxcKFeUUl96YMti5dXlY2II6mE0CrByCdCQANJH0YAhgUxrkW3zNgEgC23+4YEEMABdOnJzr+5PkK+CVi+8/kgZIL2urs+eNLS31uV8YIQYbO5an6jSBR7OhDr352suYQAGRAJABsv90Ty7/sXnP8KbcJUOR2PXpLAcXtdfbNbtfDCAtJOpenJ7MHgAaQUO/v5zSf5r2vlFbyHSvYfrun3ycA+dNOnCCQc92uRxh+WVBU0v9P9BKk6FyeoT8OShQ7+nA7+3Q3wBKllXzHArbf7ur3CYCI9xz0zz+HJ6RwttuVMECrEUpLYg8ADRzK6f39rJ0AQBI0A7iO7be7+uMv/juUONPcrkO4FORot+tggNZYmNdjqhpEMSDYhwTAq5389vsEgO23u/p9AiBQI92ug4ZRblfAAK0JuyHdeVBEscIB0Id9rfR7APp/AsD22139PgFAn7beiDV9WDMUu7T+DDanANBA0YcJgAAg4Z8E+LWB8PT04zaw/7ff/T4BUJD1btchfGqd2zUwgAkAEQDVh+5/AOgIaScAft0AbmP77a5+nwAAeN3tCoRN5DW3q2CA1mb+ITuGtvwg0tHHBKCTCQDA9ttV/T4BUA4eRJ+234gZtm15H3K7EvqkU+dqW78blCg2+KPcA6D6fwLA9ttd/T4BWFNV8TlE3et2PfpMqbvWLSxb4XY1tCnVpnN5qA/LpohimepjAuDXTQCk/ycAbL/d1e8TAABIGWxdCshCt+vRa4IF2Y05v3W7GiaIoF3n+pb2AXELEgGBaM8BkH6fAABsv900IFrf5WVlgZQc73EA7kRsdyfZUOqO7ObBxy1efH/Q7cqYoACtHoD6lgFxC1K8s6Xrnz7oCOoOAagGvQCxge23ewbMaYA7Tmf6dUFRyb0hhbN3bNKQCyDN3ZqhFUAtRF6zLe9D6xaWrahxuUJGidRDhd+QbWcCQAOA6uj7UFaLX/ver9MNECvYfrtjwCQAX1tdWb4cwKVu1yNuKLVd5/LtLdwKkAaAjr6vZ93Uotf8KsE2rQAxiO13dPHzi7Qo6CUAdc28Ban/U53RTwBE89kjYutLWkSJ1ldIHYcAaCAIYzHsJs3eLyVSrxWA4h5bX9IiwFc6129nDwD1dx0ChLGcdVOrXgIgFrZqBaC4x9aXtFgONuhcv3475wBQ/6baw5u4vlF3DoBj1WoFoLjHBIC0iKW09vKu2eLhdsDUv7X3/evfgcIWzSGAkEcG0oR0cgETANJi+zu1EoCQrbB2G3sBqJ8SCWsJ4JZWC0G9bbDt3Rpy+vFBOhQLmACQlnVvv9QAzfXIazYNuNWoFCdUu4R1KuyKrYm6RX81UDajIfcwASAT/qNz8ZrN7AGgfqo1vPOsV2xN0C2Z3f+kjQkAaRNglc71X27UbgyJok8A1RJmArDNp1e2whd6AYiYAJABFpRWD0A1ewCoH1IdTp/3///ayq2aCYCoz/QCEDEBIBMEn+pcvuorLzoCXAlA/UyY3f/NfgvrmzXnvSi1TC8AERMAMiDoDS7VuT5kKyyr4TAA9S+qJbz1/yu2+cKZN/htInaIPQCkjQkAaVv/+vMbAb1dyT5ardklShRFqs0BQuFd+9lm7Xt9fW3VvEbdIERMAMgMhU90Lv/4SyYA1I80htf9DwDvrU/WLZ3d/2QEEwAy5UOdiz+pToAdfptKFD32jh6AMAQdhQ836CW7SvCeVgCiHZgAkBHiqHd0rm/3K6xczw2BKPapZjuszX8AYPHGRLQH9Zpdsay3tQIQ7cAEgIywPNb7ALS+4T/8Unt3NKLIEkA1hDf5DwDeXZekW4NAsF19rBuECGACQIZULyhrAvC5ToyFy5gAUGxTrQ4QDH8K/zv6CcDiDe+VdegGIQKYAJBJSlXpXP7xah/qW3hLUgxrDP/rv9lv4dPNmkmuEnb/kzFsbckcwQKdy20HWPSp9hcSUWT4Bao9/FGuN2qTtCe6OiKVehGIvsEEgIzx+YNVALROKHttKYcBKDapujAX/u/wwqo03Sp0BlPtN3SDEH2NCQAZ88U7z7dAczngOyt9aPdzW2CKMQGna/w/TE2dFt6s1ezdElRtfOGFdr0gRN9gAkBGKcFLOtf7gwpvLmcvAMUWVecAGtv3vvJlCgK2XmIrkPlaAYi+hwkAGWVBPa8b44WPOA+AYkhAwt73/2svfJGiXQ3LwivaQYi+hQkAGbW6snw5gNU6MRYuS8T2Zt6aFBvUNlvr639bmwcf6G//+5/qhRVax24TfR9bWYqEf+tcHLIVyt/TbjCJ9HUIVKve1/+L/0mFrXf6HwA8qx2B6HuYAJBxIqpMN8Yzb6boHplKpM3aprWoBSLAU8u0Z//DI+pp7SBE38MEgIyrrSz/AJrDAOu2e/DBFzwhkNyjmm2gQy8LfXtdMlbXJ+hWZdWOoTUio5gAUITIM7oRnn5bf+IUUVgcQG3TW/cPAI9+kq4dQ5R6SjsI0U4wAaCI8Iil3Wi99kkS6rg1MLlAbQsBmu//tY0JeKNaf0WLciztZJpoZ9i6UkSsrixfDgWtU8sCIeDRhammqkTUO50OVJPexD8AeOyTNDjQ3dRK3qqpLPtCuzJEO8EEgCJGgAd1YzxemYymNu4MSFEigLUlpLXsDwDaAgrPrdCf/AfRf4aIdoUJAEWM19fxFIBWnRitnRYeq2IvAEWHarCBTv3lJ//6NB0tfu3mtdGfFnpOuzJEu8AEgCJm9fz5zRBoj1/+c0EK2jrZC0AR5heo7foT/9oCCvd+lKlfH1FPcu9/iiQmABRRjsLdujEa2y08+SZXBFAECWBtCmp3/QPAQ0sy0dBhoml1HjAQhGiXmABQRK1dNHcJgDd14zz8eio6AuwFoMhQ20KAX//t39Rp4eHF+kv/IFhQU1mxTD8Q0a4xAaCIUyK368bY3mzhkQWcC0DmqVana+zfgHs/zESz/tg/BOomA9Uh6hYTAIq46sHefwOo1Y1z7yup2Nzo0a8Q0dcCArVZf9wfALa2evDYUgNf/8DntZXlr5kIRNQdJgAUeWVlthL8XTdMu1/h73MNLK0iAr4Z9zdwUg8A3PH+IHSE9IepBLgZRmYjEHWPCQBFhSMZD0Nhk26c5z9MxpJq7b3ViaC2BI0s+QOAZZt9ePpTI0NUG1JzPP8yEYioJ0wAKCpqqx7thMgtunFEgGufyoAjnBBI4VP1NlSTYySWLcDVC3IM7PoHCOS65WVlAQPVIuoREwCKmhTHey+AbbpxPl+XgIr39fdYp/ik2hwj6/2/9tjSDCzfauTkytrUHO/DJgIR9QYTAIqa5VVlrUqpG0zEurE8HfU8KIj6qtOB+srMen8A2Nzqxa3vGNj0B4AS9Rd+/VM0sQWlqHLs9LsBrNONU9di4Q9PmGl4KU4EBZbBlz8A/KUyC60BI83o6pFS95iJQES9xTVVFFWNtUtDWXljWwHM0I1VvdmLUUNs7DPCXHcuDVAhgbU+qH3E77ctWJOMW98dZCSWgrrwk8r5nxoJRtRL7AGgqBvl1D8qwHITsa59JoN7A1D3bIG1PgQEzX36b2nz4MrXBhuJJcC71YvKnzYSjKgPmABQ1FVVVYU8kN+YiNXUpnDFIxkQrpqmnXEAa0MICJiZ8d8VUuGy+TmG9vuHo+BcAq77Jxfw04lc0VCzqiYrf9yBAPbRjbV+uxe7ZdqYMIpDAfQttsDaYG6t/9fu/TATz3xmZMc/CPBo7aIK7QOziMLBHgByjUfsywD4TcS6/tkMrFjvNRGKBoIQurr9Db/8l25KxK3vGZt82iJBXGUqGFFfsQeAXFNfs6ohO2+sF0ChbqyQo/D25z6cOKkTyT72psa14I4v/4DZ+6A1oHBa+VA0dJhpNpXI72vfqHjdSDCiMLAHgFyVnOP5PwArTcRaX+/FRfdkwjY33Ev9TXDHbH/DL38HCpe9shvWNRnrZfqoerD3DlPBiMLBHgBy1bYVK+ysvLGfATgD0N9LdX29F4FWweQJQe26UT/T8fVSP/M9QDe8mYWyz40dRBVyLHVi04vPbTQVkCgcTADIdY01K9dm5Y0dAeAgE/GWrEvE6JQAxuTaBlIK6g9Usw1rYxCIQO9P2edp+NtbWeYCCm6oXTT3SXMBicLDIQCKCZ7EjssA1JqIJQL8fu4grPhEAQ7nAwx0ansIalMoIgvpPtyQhKsXZJsMuUok4y8mAxKFiwkAxYTV8+c3K0tOhaFvuPaghTMeH4zaJQD8TAIGJAdQG4NQdXZEwq9v9uJXLw5G0DHWjRQEnNNrqx7tNBWQSAeHAChmNFSvWpedt082oA4zEa8jaGHRmmQcN6wVaakCJDLfHTD8XeP9qiMyyV1duwenPjcUG5vNLS0VhT/ULqp41lhAIk1sESmmWImdVwL4xFS8DU1e/PyZoahfI1BbI9NNTNGlGm1YawNGt/b9tma/hTPnDsGa+gSTYd+szfbcbDIgkS5OkaKYM7qwtMCx7CUAzGy3BmC/oQE8WboZqemAs7uXvQH9kS1QW0JQLZFb59nit3Dqc0Px6RafybCNyvLsX72gTPsUTCKTOARAMaehdkV9Vu4+X0GpWaZibmnz4NPNifhRQRu8LTagFJBkMQXuJ1SbA2tDCMrwzn7f1hZQOL1iKJZtTjQZ1lGC0upF5R+bDEpkAhMAikmNtauWmVwaCADrm7xYssmHH+7VAV+n3bVNbLIFeJgFxCwHUFtDXcM3EdzgqT1o4ayKIVi8McloXAVcW1059wGjQYkMYT8oxSxPYseFAD4wGfPddcn4edlQNHRaXV+VtQGouhB4nGDsUW0OrBo/VGNkZvl/rcVv4eyKIfjoK7Mvfyi8VH3kfteaDUpkDj99KKaNmjJ7dysBHwMYbjJuQXYQj5VswbD0HS+XRAVnaAKQzEfCdcEdY/1tkd/TeWurB2fNG4oVW41O+AOA2oCSg79aWFFnOjCRKWztKOaNLpo92VF4HUCyybgjMkN4rGQrcgd9s22wZFiQ3byAl49G1DmAqgtBNdhRWa3xZZ0PZ87dDRtbTJ8iKc2Wg8lrqio+NxyYyCjOAaCY11C7cn127j4roVQpDCatzX4LL32RisNHdmJIaldPgPJLV5ezja75AcwDokI1dm3lq9qiMxTz8cZEnFY+FNvbjTeBQSjMrK6seN90YCLTmABQv9BQu2rloPyxWxTwI5Nx24MKc1ekYXh6CGN3+6YnQHUKVJMDKAGSVNeqATJLANXqwPoqCNXsRHSS37e9tiYF5/17CNoC5qdACeRCbvZD/QUTAOo3GmtWLs7OG5cM4AiTcW1H4bXVKdja5sFRozphff1eEEC1CVSj0zVJkMsGzfj6xb8x2NXbEqUXvwhw38cZuPr1HJPb+367hOtqF1XcGIHARBHBBID6lYaalQuz8vYZDaj9TMf+fEsilmxKRFF+B5K93+qKFkC17+gRcAD4LK6fCYcDqGYH1qbgN8MsUVLf7sH5LwzBU5+mR2Z6gcg/ayorLopEaKJI4fdMPzG+tNTXVu/8TAl+DMhBgEoGpEkBnwjkqVFOQ0VVVVXI7XpGw8SJ5ybUZ257EVDHRCL+7mk27jlxK/YbGtj5DyhA0ixItqerV4C6Z3fNq1AN0X3pf+3TLT5c+OJu2NBkerJfFwVUjHTqfxJPz1/doO2zLcFPBTgQUJmAdABYDJHnUgZ7n15eVraLh4diCROA2Kfyi0tOEpG/QWHPbn7uU8dSZ6xdUG5sH/1YVjB9eoYdSF4IwcGRiJ/sFfyhsB4nT2jtfvg/WUEyPZB0D3sFvke12kCTdP3bBSLAI0vSccPbWQjZkWnqBHg5NcczK15eeKOKZx9kQT0KyIRd/pBgvVLqyupF5U+Dp2/ENCYAMWx00cyJjrJuBzC5l5e0QFnH1yx87q1I1itWjDzi+CyPL+l1QCZGqowjcztww9F13+wXsCuqawkhMjyQeF490ClQLTZUsw24+D28rc2DqxbkYMEaoytHv0MBlYEOz/Eb3ivriFghMSS3aNZRSqkXAaT18pJ3LHEuWlM5b3Ek60gVZ8EAABnuSURBVEXhi9dmKqbtMXVWjg/WnyByAfo+T2OrOJ79a6vKNkeibrFm5BHHZ3l9iQvE4JbB35eR6GBOcQNmjm3t3QWeriECpHsgKXGQDAQcqBYHqlmAQJRm9HVj7opU/LUqG42dkeuSUUBlsuOZsbyqrJc3Rf82+phZQ5yQWgZgWB8vFQBPiOO5Il7apP6EkwBjyMSJ5yYkjsv9tVdQAeAohNepnGoppDXUrHzJcPViUtO6LztTx+z7nMeRYgB7RKIMv63w6uoUrNruw6Q9/UhJ6KFXU3bsJ9DsdE128wPKAZAAwBoA2YDTtU2varBhbQ1B1dlQ7QLY7vb2bmr14KKXhuD+jzPQGYrc71mAl4Mdnplr3i5rj1ghMWZQ7rhb0NUm9ZUCsL9S8svsvLG+zFGHvt9YuzQu5kr0BwOgNRoY8opmz4DCzQAKDITr8PlDQ7945/kWA7H6hb0nz0gP+DzPQ6nCSJaTk2LjyimNmD2+DVY4w5uJqqtXINmCJKv+seOgLV2n8HU4XS/6Dve/8r9NBHjqszTc8GYWWiOwtv97nkvJ8fw8Xsb8ASB/WmmmOPYmmNmJczUEl9VUzn3eQCzS1A9an4Etr6h0b1H2LQo4zmhgJcfULKx43WjMGJdbeEaSspqfBXBCpMvab2gAfyqux0G7+/UCedE1ZyDJ6koOEl1OCmyB8gsQEKBDoDqdrv8doz7d4sN1VVnmD/LZGZF/1gz2no2yMndmNbpkVPHM6Rasl03GFGCRZdkXVy/492cm41LfMAFwSdfYddKVArkEgM94AaLOq6ksv9943BhXWFjoXaey7xSF8yJdllLAjL3bcOWRjRiWZrBX0wLgUxDfjmQgoevfkqC6Bu0sFf6KA1sAG1AhAEHp+ickUIEd4/f95NW2ocmLm94dhBdWpUbpIEe5rmZRxR8Rh7Pa86bOugCi7oxA6BAUHvYEPFevfqtsWwTiUw+YAERZYWGhd60n6zyIugZATqTKUVC/ql5Ufk+k4se63KklFymRmxGFeS4pCQ5++YNmnDWx+bsbCEWSteMfpQDPjsdYAaIEStQ3rykHXX3ktkRtx71IavZbuPvDDDy6JAOBCC3t+54gFH5Zs3DuQ9EoLBblFc/+NYA7IlhEHZT8eZTdcF+87KUQK5gARNHo4lnFDtStAIzvYve/rGNrFj33WuTLiV1dXZfqaUBlRKO8nBQbZx/UglMPaEaqL+4+FCOqI6Tw1LI03PXBIDREcHb/d0kzFH4cb0Np35dfNPt4UXgx8iXJF0qsS6sry40ON9CuMQGIgoLimaMdWDcJMDNKRXaK4+xeWzWvMUrlxayCopLxNuQFKORFq8xBSQ5OP7AFZxzYjMykAfDZ7aKGDguPLU3HY0sz0NARvZ2WBFjjcWQmj/T9er+NxE0AEqNRngLmWXB+u3rRvDXRKC+eMQGIoL0nz0gPJiZcJZCLEaWHB8DX+5KfEbXyYlzBlNLdbK89F8rsIUI9SfUJTj2gGWcd1IzBKUwE+mJdkxcPLc7Ac5+noSOCS/p2SuEl2+8/dd3bLzVEt+DYlVc863FAnRLFIv0K6rYEf/C6eFrNFG3cByAS5syx8q2sM+wETwWAHwKIzCbkOyXNQeUtaa5ZwYdmh/p1K9oHj839F2zfYCAyWwfvTNBW+PirJDy6JANfbPchI9HBiEE2s+5uLNmUiOvfyMIfF+Zg6eZEhCJyat8uOQq4tubI/c5veuyBuNjdr7cGjxr3kSj8AtH7kPECOMJOsM7IztunvuH0kz5FVRXH1QxjW2RY/tTZh4jgdgCTXCg+IKJm1FaWv+pC2f1C7tSSmUrkQURwAmZ3RmaG8NMJrSgZ14ohaf1kyn2EbWzxomJFKipWpqK6PsGtatQrwWnVlXPjYgOtcOyYw/QyotmbuYMClsCSi6oXVLwd7bIHMiYAhhQUzh4RsvA3BfwM7vxea0XUSbWV5R+4UHa/UlA4e4St5PFIbxrUHa9HMDWvA8fv046i3Pa4mzTYHrTwypfJKF+Rhg/WJcJxsSkSYJHXwemrq+ZucK0S/URu4ezDlPX/7d17dF11mcbx593nJG1SKKWtVEuhSRovTEGEqgiMmFvrdFxU0jTLwZGlAovxwp0iMIgElIvUS0HwDuJyEDQkYXCYamkuVaSyEAcqIGCbk5YO9xRKaZsmOfudPwijiKVJzj7ZJ9nfz18syO/dT+lJ9pN99tk/3SqpLIbDu0u3pkNdwN9VNCgAOZpzdGNJumTwTJNdLGnfGCLsMtl1vFc2Qk1NQflv1l8o12Ua07do3qg45Trm4D4tqtypunk7J+z9As/vSGltT4m6MiXqykzWzoHYt0/sd9MlPR9899fU1DQx/6fnwezjjy8t3pE+w2Rf1PA3BorSTpN9qyQMvpKUvRjyhQKQg/KahuPlfu1Y3mH+evZfYTo4c9Pq5kw8xx//hn6juUVSRdxZJCmQ68jZ/aqbt0vvn9OnQw/oVzo1Pq8OZF166OlJ6syUaG2mRI88XzxGD+0ZlsdC6V83dbT+Ie4g41Vl1dI52UBXSvqE4jmXbJH7xZnOtp8ogQ9oigIFYBTm1jUcEYS+UtJxsQQwe1DuZ2U6Wn8dy/EnmMrFi6dm+0u/PMrdF/OqtCjU4W/r1/sP7NN7D9ytI97Wr9Kiwvxl9cW+QOufmaT1zxRr/TPFeuCpyXndkW+UBuRa4T71yz1dN/fFHWYiKKtuOMrMr5V0VEwR7vNQZ/d0tf4upuOPWxSAEchxm94o9LrZl3umB9cn7XnkY2Fe9QkLQgu+I+l9cWfZk1QgvXPmgOZN79fbpw9o3owBVU4fUNn+gyoKxuaXoP6sacu2tDZvS2nji8Va//QkPfRssTa/FOs7KcNxv8xOzbS3rI87yITT1BSUr33oEzK7RtKsGBKEkm6RDZ6fab/z2RiOPy5RAIZhwYLTinqn9X7O3C+TtF8MEQZk9h2z4Evda5q3xXD85GhsTJVvHfyM3K5QPH/Xo5IKXv2EwdxpA5pRktXM0lBvmTKo6aWumaWDesuUrEqGtjHed1L4uq0EilJS6K5Xdgfa3p/S9n579Z93B3p5d6DenYE2b0vryW1F2vxSWs++EsR6094obDf3S7tnpq+jOOfX/KrGfXYF2eUuXagYPi0g6RWTvh5M2nXVhlWrctypa+IbV9/Fcaioa6gLQ19p0vxYArjWpGRnb+hseSSW4ydUWVXjWy3IXiPppLizYNRcststCJZ3r2neHHeYJKlY2PB2z+oKyRtjivBnyS/OdLQ1x3T8cYECsAcVtfXvcNk35PpITBGeMPPzutvbxuAZ3NiT8tr6hXL7qqQj4s6C4XPp3sB0dnd76/1xZ0myiupltW7hSkmHxpPA24NQZ/NI57+PAvA3yqpOmBYEqQvztk3v3r3k8qvTk/pWcgmrYFh5Tf0yyS6TdEjcYfCmNpjsS90dLbeJO8MLQlVVVXqTzThZ5ldImhlDhEGZbirKDlz8RNcvXojh+AWLAvCav9zEskLSATEkCCXdEqR9+cbVbc/FcHzsTVNTUP7rhxoku1JSZdxx8Dqb5XbFXO+9iS1lC9OcDzdOLxoML43xJuqtbnZ5Wbb3Bl4jr6IASCqrW1ZlYbhS0uGxBHDvknR2prPtoViOjxGZ39hYvOuF7KluuljS7LjzJNwWk11ZMiO48ZHm5v64w2Dv5tbVHxK4fVOuD8cU4TE3P6enve2XMR2/YCS6AMxadNKU0oEd18p0SiwBXBmTnd/d2dISy/GRkzlHN5YUT85+2k3niCsCY+1hl74+ZUbqp5z4x6eK6oYGl6+I7UFqrht3Fk0569nVP9kRy/ELQGILwJyjG0uKJmdXj/UWsUN2mrQiDKdezcNIJoCmpqBi7R/rQ/NzTTom7jgTm7e76Ws97W2/Eu/xj3vzGxuLd2wNP2seXi7Z1Bgi3LczPaU2qSUgsQWgrLb+RnM7eYwP65L+YzA1eOGTd9/51BgfG2Pg1adE6rOSf1zSlLjzTBAvye0WKfwBb5NNTActXDI7nU1frTgeK+y6MdPZeuqYHrNAJLIAzK1ZemQg/V5j++e/z93OYre+ZKioa9xPYfhxd/+4TMcqod9rOXHdI/kPBvrSzVvWNe+KOw7yL6bHCnsovTeJ+0Ik8odSWc3Sb5v02TE63FNyv4gNK5Kroq7xYM+GH5P5ieJ5Am/K5I+Gsp+bp27LdDY/HncexMLKq+tPktlVGqObbE323e6OlrE6JxSMRBaA8pqljyr/n+ful9l3U8U7L9mwatXLeT4WxomyqoZ3BYH/i0snSnpH3HkKxBOSfh6E/jMe2ILXzD7++NLJO4q+4NIFkibn+XCPZTpaE/eMj6QWgD7l8znVppYwlTqfbXrxZiqrG+YPmi80U51cH1I8e6vHYZdca12+KkgHq7rvbvlz3IFQuOYuaiwPstkVcjXk8TD9mY7WOPYuiFVSC8AOSaV5GL0+NJ29qb21Mw+zMYEtWHBa0dZpWz9gYbYuNKsz6f2SCn57vWHql/SApHtDhe3ZXUVdvKePkZpbu7Q6cK2U9O48jO/LdLSW5GFuQUtoAWhYL/lhEY7c6maXs00volK5ePHUwf7Jx1ho75PpfXp1i+K3xp1rmDZLtl7m6+S6Z2BX6n5O+IhEnp7Y6tIjPR2tMe1XEJ9EFoCKmvqVLjsrglEDJv/2YH//ZZvvuevFCOYBe3TQwiWz02FqvoU61GXz3XSISRWKpxhkJf2vpIxMj0u+Xm5/9DBc39N1x0sx5EGCHPyPH9k/XVx8qcs+J6ko54FuN2Q6W07PPdn4kswCUFv/Dnf7k/S6bdFHxvXLMOXnblrT9qfokgEjN+foxpLJk8OKMAjLXTZLoWbLdIBks+S+v0z7ST5VZlPlNnQzle+j///B6S9LQVby3ZJ2SsrK1CupV6G/IKlXgfVaaM8opc1BmM3st+2AzQ888P2BWP7AwJC5dfWHBFn7hkz/lMMYz1rq0M3tzY9GFmycSGQBkKTymoYVki8fxVL2mQaAAlJR11AXhr7SpPkjXmx2Xaa9JYorwuPO6H8DHudKZwQXy3TXCJZsk2l56YzUoZz8AaBwdK9pWTNlRupImZZL2jb8lb7as/tekLdgBS6xVwCk1+68fv4KuZ2jPd9xnZXspiAdfpFtegGgsM1bVH9AOBh8RfKTtedth7MmfatkRuqCJG8mlegC8JqKhQ1vD7PhySarljRPUiDTE+a2NpsOvsfn+QFgfDm4rqEi5eFn5FYlWeWrT/y1Hsm7PLQf9nS1PBZ3RgAAAAAAAAAAAAAAAAAAAAAAAAAAAAAAAAAAAAAAAAAAAAAAAAAAAAAAAAAAAAAAAAAAAAAAAAAAAAAAAAAAEBGLOwCwN2VVJ0yTpY4KTBXuyioIM8V92d89/ts7t8edDahcvHjqwO5JxwaeOsjNSwO3JwYH+tZtvueuF+POBrwZCgAKVmXV0jnZwK+SbJmkyX/zn3fKdHOQ8ss2rm57Lo58SLby2iWzLExf5qZP6o2vz92SN6dCu2hDV+uWOPIBe0MBQEEqr1m2SApvl7TvXr70mcC1bGNn62/HIhcgSWXV9R8ys59LOmAvX7pd5g2Z9ra7xyIXMBIUABSceTXLjgkVdkoqHt4Kf1mu4zKdbQ/lNRggaW7N0iMDaa2kfYa5pD80r9rU3rYun7mAkQriDgD8tVmLTpoSKrxFwz75S5JNldmP1NiYylswQNKCBacVBbKbNfyTvyQVB24/nbXopCl5igWMCgUABaV0cMeFkspGsfSIub3ZJRHHAV6nd9oLSyU/bBRLy0qzOy6IPBCQAwoACkZ5zdK5ks4b7fpAdmKEcYA3CFwfG/Vi1/Kh1zhQECgAKCC2QlLJ6Nf7EZFFAf4Ol47MYXnJ0GscKAgUABSEedVLj5V8WY5jpkUSBtgj3z/H9Y1l1fUfiiYLkBsKAOLX2JgKA7teuX8qZUcUcYA9MVnOD5+yIFjJDasoBBQAxK5sa/ZUub8n1zkm/SGKPMCeeBSvMff3lL8QnhJBHCAnFADEqnLx4qnmaopkmHlLJHOAPXG/PZI55l8pqzqBt6wQKwoAYpXtm3yppLfmPMj1ZMn0dHPuiYA9K52Zvk2uJyMY9RYzuySCOcCo8SRAxGZeVWNlGGQfljQp11lufmJPe9ttEcQC3lRFTcOJLv9pBKMG5KnDMp3Nj0cwCxgxrgAgNtkge62iOPlL9/a0t/0sgkjAXnV3tNwq6dcRjCpSkP16BHOAUaEAIBbltfULTfrnCEaFgelsSR7BLGBYwsDOlhTmPMj1kbk1JyzOPREwchQAjLmqqqq0u30zkmGuH3W3t94fySxgmDatafkfN785ilmBgm8sWHBaURSzgJGgAGDMbbb9zzBpfgSjtoeD4kYqxCKV0kWStkUw6l29+73w+QjmACPCwygwpuZ8uHF6EPrtyumRv0PcLulZ2/qr3FMBI/fixsd2TKs4JDRpYa6zTPrAzDmH3rR186M7o8gGDAdXADCmivuzV0qanusclzamJu+8LoJIwKhNmZ5aKemJCEZNC4vCyyOYAwwbHwPEmKmsbpifNX9QUjr3abYk09Hyi9znALkpr166RKb/jGBUVu4LMp1tD0UwC9grrgBgzGQVXq9ITv7ezskfhSLT2XqnTFG8FZWSItkTAxgWCgDGRHnt0mUyq4pg1KAF4TkRzAEiE5qfI2kg50Gmf6yobliaeyJg72iayLuyqk9NNnv5UZnKIxh3faaj9YwI5iRSRd1HD3NPn+rutSaVSZJLPYF8jYX64cautodjjjhuldcs/Zak03Me5Mq4T/2Hnq6b+3JPBewZVwCQdxZsPy+ik3/vQFHq0gjmJE7l4sWTymqWftvD1INyP3PoY5hTJE0xab7LzgoDe7C8uuH6+Y2NxXHnHY+GXpu9OQ8ylVuw/bzcEwFvjisAyKuDFi6Znc6mH5e0T87DzE/PtLfdkHuqZKlcvHhSuLtklUvVw/l6lzqmzEgtfqS5uT/f2Saa8tr6z8vt+ghGvTKYGnznk3ff+VQEs4C/iysAyKt0Nn21ojj5Sw/Pzb74vQjmJE64u3TlcE/+kmRSzc5enlE/GkOv0SjeRtln6HsHyBuuACBvyqobjjLzdYrgdWaBLexe07ImgliJUlH30cM8TD2okZf9bMrt8A2dLY/kI9dEVlHXUOeh3x3BKHe3o3s6W+6LYBbwBlwBQL6YmV+rKE7+Uhsn/9FxT5+q0X2fpwZNp0SdJwm617SsMemOCEaZmW5QUxM/p5EXvLCQF+XV9SdJOiqCUbsDhedHMCeRzMO6Ua+V5/yI26QKFC6XtDv3Sb6gfO1Dn8h9DvBGFABEbn5V4z4yuyqKWS7/5oaOOzZGMSuJXHZwDsvnRhYkYTZ03LHRZCsjGWZ2TeXixVMjmQX8FQoAIrcjlf13SbMjGPVselJfJEUiwXK5AXPfyFIkUNHugStkejqCUbOyfSUXRDAHeB0KACJVXrtklrkieVKfyS/asGrVy1HMAsba47+9c7u5XxzJMNO55bVLZkUyCxhCAUC0wvRpkibnPMf0++7jDv9x7oGA+HQfd/iPZfp9BKMmD31vAZGhACBqiyKY4WZ+jpqawghmAfFpagpD+ZmSPOdZxk2ZiBYFANEyvTPXES7d2r2m7Z4o4gBx29Tets6lW3OfZIfkPgP4CwoAolaU4/od6VDc8IQJZeg1vSPHMbl+bwGvQwFA1DbltNr11Q1drVsiygIUhA1drVvc7JocxzwZSRhgCAUA0XLL5dL9poG+1NciywIUkMGdwQrlVJBtXWRhAFEAELHQ/CaN9oYnty9sWde8K9pEQGHYsq55l9y+MNr1oYU/ijIPQAFApDZ1tP5Bpp+MeKHprkxnS3MeIgEFI9PZ0uzSf498pTVvam/jCgAiRQFA5FLFu84Y2Wef/fGi7MCnFMVHpYDC5qm0f1rShhGseXigKPhMvgIhuSgAiNyGVatezu7evchlrXv9Ytea1ED6g090/eKFMYgGxG7j6rbnPEx9UPLf7P2rfXWQ9totv2remv9kSJqct2oF3kx5bf1CuZ0ueZVkr21ossOltTL7QU97SxTbpmIPymuW5nRVJdPRys+I/LGy2vqPWah/k9mx+svH/Ppcujdwv6G7s61NXBlDnvDNjbHR2Jg6+OmdU8Pi0tItHc1PiR9qY4ICMD4sWHBaUe++zx0YplPBvvsHWx5pbu6POxMmPr65gQmMAgBgT7gHAACABKIAAACQQBQAAAASiAIAAEACUQAAAEggCgAAAAlEAQAAIIEoAAAAJBAFAACABKIAAACQQBQAAAASiAIAAEACUQAAAEggCgAAAAlEAQAAIIEoAAAAJBAFAACABKIAAACQQBQAAAASiAIAAEACUQAAAEggCgAAAAlEAQAAIIEoAAAAJBAFAACABKIAAACQQBQAAAASiAIAAEACUQAAAEggCgAAAAlEAQAAIIEoAAAAJBAFAACABKIAABPb9tEv9ZejiwGg0FAAgAnM5E/msHpzdEkAFBoKADCx3T3qle6rI8wBoMBQAIAJzEL9UFJ2FEuz2SB9Y9R5ABQOCgAwgW3santYbt8d8UKzGza3Nz+ah0gACgQFAJjgSmcG50rePuwFrjXTX5qxPI+RABSAVNwBAOTX848+mj3wvYfdNrDL95e0QHsu/lmZXT9928xPPvDA9wfGMCKAGFjcAQCMncrqhvmDplNMvlBS2dC/7pH76myQvpHL/gAAAAAAAAAAAAAAAAAAAAAAAAAAAAAAAAAAAAAAAAAAAAAAAAAAAAAAAAAAAAAAAAAAAAAAAAAAAAAAAAAAAAAAAAAAAAAAAAAAAAAAAAAAAAAAAAAAAAAAAAAAAAAAAPhr/wfhh3O+dogh1wAAAABJRU5ErkJggg==;" vertex="1" parent="7">
                    <mxGeometry x="240" y="170" width="232" height="232" as="geometry"/>
                </mxCell>
                <mxCell id="12" value="" style="edgeStyle=none;html=1;" edge="1" parent="7" source="10" target="9">
                    <mxGeometry relative="1" as="geometry"/>
                </mxCell>
                <mxCell id="10" value="&lt;font style=&quot;font-size: 19px;&quot;&gt;&lt;b&gt;Currently in Canada the weather is&amp;nbsp;&lt;/b&gt;&lt;/font&gt;" style="text;html=1;align=center;verticalAlign=middle;resizable=0;points=[];autosize=1;strokeColor=none;fillColor=none;" vertex="1" parent="7">
                    <mxGeometry x="190" y="130" width="340" height="40" as="geometry"/>
                </mxCell>
                <mxCell id="11" value="&lt;div style=&quot;text-align: start;&quot;&gt;&lt;font style=&quot;font-size: 48px;&quot;&gt;&lt;font face=&quot;Poppins, sans-serif&quot; color=&quot;#212529&quot;&gt;&lt;span style=&quot;text-wrap-mode: wrap; background-color: rgb(255, 255, 255);&quot;&gt;&lt;b style=&quot;&quot;&gt;18&lt;/b&gt;&lt;/span&gt;&lt;/font&gt;&lt;span style=&quot;background-color: rgb(255, 255, 255); color: rgb(33, 37, 41); font-family: Poppins, sans-serif; text-wrap-mode: wrap;&quot;&gt;°&lt;/span&gt;&lt;span style=&quot;color: rgb(33, 37, 41); font-family: Poppins, sans-serif; text-wrap-mode: wrap;&quot;&gt;C&lt;/span&gt;&lt;/font&gt;&lt;/div&gt;" style="text;html=1;align=center;verticalAlign=middle;resizable=0;points=[];autosize=1;strokeColor=none;fillColor=none;" vertex="1" parent="7">
                    <mxGeometry x="291" y="390" width="130" height="70" as="geometry"/>
                </mxCell>
                <mxCell id="13" value="&lt;font style=&quot;font-size: 16px;&quot;&gt;Check the weather&lt;/font&gt;" style="rounded=1;whiteSpace=wrap;html=1;" vertex="1" parent="7">
                    <mxGeometry x="296" y="460" width="120" height="60" as="geometry"/>
                </mxCell>
            </root>
        </mxGraphModel>
    </diagram>
</mxfile>